<svg xmlns="http://www.w3.org/2000/svg" width="20.426" height="20.407" viewBox="0 0 20.426 20.407">
  <g id="Group_16843" data-name="Group 16843" transform="translate(-310.077 -574.552)">
    <path id="Path_11542" data-name="Path 11542" d="M317.6,574.552h12.187a1.075,1.075,0,0,1,.717.916v.2a1.025,1.025,0,0,1-1.169.961.309.309,0,0,0-.291.195,2.719,2.719,0,0,0,.022,2.679.289.289,0,0,0,.3.174,1.053,1.053,0,0,1,1.136.77V581a1.268,1.268,0,0,1-1.488.8c.174.153.3.252.411.363a3.708,3.708,0,0,1,1.077,2.1v1a3.831,3.831,0,0,1-1.445,2.44,3.728,3.728,0,0,0,.4.021,1,1,0,0,1,.863.443,1.426,1.426,0,0,1,.181.521v.2c-.183.716-.42.909-1.169.928a.3.3,0,0,0-.275.187,2.724,2.724,0,0,0-.047,2.614.385.385,0,0,0,.4.251,1.02,1.02,0,0,1,.782.283,1.191,1.191,0,0,1,.308.676v.2c-.184.726-.445.931-1.186.931H313.726a3.2,3.2,0,0,1-.6-.036,3.622,3.622,0,0,1-1.86-6.245c.092-.089.193-.171.333-.294-.2,0-.345.006-.489,0a1.023,1.023,0,0,1-.853-.473,1,1,0,0,1-.052-1.059.952.952,0,0,1,.919-.555.468.468,0,0,0,.5-.319,2.772,2.772,0,0,0,.043-2.332.551.551,0,0,0-.582-.413,1.008,1.008,0,0,1-.994-1.109,1.027,1.027,0,0,1,1.057-.973c.144,0,.287,0,.485,0-.121-.1-.2-.16-.272-.223a3.647,3.647,0,0,1-.243-5.318,3.776,3.776,0,0,1,2.054-1.056h3.146a.365.365,0,0,1,.116.447c-.077.172-.235.164-.391.167-.882.016-1.765-.036-2.646.032a2.984,2.984,0,0,0,.386,5.951h15.47c.059,0,.119,0,.179,0a.382.382,0,0,0,.415-.407.371.371,0,0,0-.4-.415c-.1-.006-.2,0-.3,0H314.4c-.266,0-.531-.007-.8-.018a2.166,2.166,0,0,1,.116-4.33h15.489c.087,0,.173,0,.259,0a.364.364,0,0,0,.381-.332.379.379,0,0,0-.318-.452,1.6,1.6,0,0,0-.317-.021q-5.673,0-11.348,0c-.165,0-.323,0-.4-.189A.361.361,0,0,1,317.6,574.552Zm3.948,19.779h7.705a1.147,1.147,0,0,0,.335-.032.343.343,0,0,0,.264-.333c.021-.283-.141-.441-.457-.442h-4.34a1.733,1.733,0,0,1-.239-.006.3.3,0,0,1-.276-.291.3.3,0,0,1,.223-.334.95.95,0,0,1,.3-.028h3.126c.12,0,.232.02.149-.176a3.294,3.294,0,0,1,0-2.684c.06-.141.043-.186-.117-.185q-1.2.008-2.39,0c-.152,0-.218.051-.213.208.007.252,0,.5,0,.756,0,.193-.01.379-.223.466s-.335-.058-.464-.182c-.263-.254-.527-.505-.784-.765-.113-.115-.2-.115-.314,0-.289.284-.588.556-.884.832a.351.351,0,0,1-.413.109.37.37,0,0,1-.206-.377c0-.279-.005-.558,0-.836,0-.154-.056-.211-.211-.211-2.8,0-5.6,0-8.4.007a1.522,1.522,0,0,0-1.477,1.943,1.5,1.5,0,0,0,1.489,1.094q4.67,0,9.338,0c.34,0,.49.1.5.327s-.14.332-.482.333h-9.318a2.543,2.543,0,0,1-.435-.036,2.169,2.169,0,0,1-.251-4.216,3.388,3.388,0,0,1,.966-.1q3.882,0,7.765,0c.592,0,.515.052.519-.524,0-.258-.007-.264-.273-.264h-8.382a2.947,2.947,0,0,0-2.937,2.971A2.858,2.858,0,0,0,312,593.783a3.089,3.089,0,0,0,1.858.547Q317.7,594.335,321.547,594.331Zm-.683-17.7h0c-2.4,0-4.8-.005-7.205,0a1.5,1.5,0,0,0-1.434,1.867,1.543,1.543,0,0,0,1.578,1.172q4.767,0,9.534,0c1.619,0,3.238,0,4.856,0,.173,0,.211-.038.137-.2a3.155,3.155,0,0,1-.275-1.272,3.251,3.251,0,0,1,.282-1.411c.058-.128.021-.17-.109-.161-.06,0-.12,0-.179,0Zm-1.139,6.615h-7.268c-.244,0-.242,0-.154.22a3.363,3.363,0,0,1,.007,2.578c-.1.242-.1.242.162.242h9.557c.04,0,.08,0,.12,0,.127.007.18-.054.179-.179,0-.246,0-.492,0-.737,0-.289,0-.289-.288-.289h-5.814c-.073,0-.146,0-.219,0a.3.3,0,0,1-.305-.3.292.292,0,0,1,.276-.326,2.845,2.845,0,0,1,.357-.018h9.657a2.718,2.718,0,0,1,.338.017.314.314,0,0,1-.029.626c-.166.007-.332.007-.5,0-.138,0-.19.058-.187.192,0,.272.005.544,0,.816,0,.145.056.2.2.2.391-.006.784.008,1.175-.005a1.524,1.524,0,0,0,1.4-1.853,1.5,1.5,0,0,0-1.482-1.183Q323.319,583.245,319.725,583.247Zm-.534-1.442h-7.785c-.106,0-.213,0-.318.008a.385.385,0,0,0-.349.391.394.394,0,0,0,.366.378c.092.007.186,0,.279,0H326.7a4.121,4.121,0,0,1,.555.035,2.169,2.169,0,0,1-.067,4.3c-.451.049-.9.02-1.353.027-.148,0-.224.049-.216.208.007.132,0,.265,0,.4,0,.113.043.175.163.175.491,0,.986.035,1.473-.014a2.969,2.969,0,0,0,2.462-3.92,3,3,0,0,0-2.877-1.991C324.289,581.821,321.74,581.8,319.191,581.8Zm3.844,8.352c.2-.19.4-.378.608-.564.3-.276.414-.275.7.005.189.181.376.364.588.569.009-.071.017-.1.017-.133q0-2.379,0-4.757c0-.147-.06-.2-.2-.2-.491.005-.982,0-1.472,0-.291,0-.292,0-.292.285q0,2.289,0,4.577A.261.261,0,0,0,323.035,590.157Zm-6.412-2.432q2.619,0,5.237,0c.523,0,.465.057.467-.469,0-.309,0-.31-.31-.31H311.3a1.709,1.709,0,0,0-.238.01.386.386,0,0,0,0,.763,2.035,2.035,0,0,0,.259.007Zm11.012,1.449v0c.6,0,1.207.006,1.81,0a.375.375,0,0,0,.4-.5c-.05-.193-.187-.284-.443-.284-1.087,0-2.175,0-3.262,0-.6,0-.509-.089-.523.532-.005.189.062.26.252.258C326.455,589.17,327.045,589.174,327.635,589.174Z" fill="#9195b2"/>
  </g>
</svg>
