<svg id="Component_15_14" data-name="Component 15 – 14" xmlns="http://www.w3.org/2000/svg" width="93.481" height="93.48" viewBox="0 0 93.481 93.48">
  <path id="Path_11114" data-name="Path 11114" d="M636.827,155.107a46.74,46.74,0,1,1-46.741-46.74A46.741,46.741,0,0,1,636.827,155.107Z" transform="translate(-543.346 -108.367)" fill="#b5c0dc"/>
  <path id="Path_11115" data-name="Path 11115" d="M595.1,233.463c.336.007.674.013,1.012.013a46.742,46.742,0,0,0,46.65-43.85l-27.634-22.643L605.453,178.1l-4.711,10.683-5.649,9.33h-9.336l1.651.882-32.518,3.7Z" transform="translate(-549.37 -139.996)" fill="#1299e8"/>
  <g id="Group_16866" data-name="Group 16866">
    <rect id="Rectangle_6331" data-name="Rectangle 6331" width="39" height="52" transform="translate(27.74 24.001)" fill="#fff"/>
    <path id="Path_11563" data-name="Path 11563" d="M0,0H21V4H0Z" transform="translate(36.74 39.001)" fill="#707070"/>
  </g>
  <path id="Path_11564" data-name="Path 11564" d="M27.74,41.6s24.4,17.734,22.333,31.133,16.2-40.066,16.2-40.066L50.074,61Z" fill="none" stroke="#1299e8" stroke-width="0.7"/>
</svg>
