<svg id="Component_85_5" data-name="Component 85 – 5" xmlns="http://www.w3.org/2000/svg" width="18.266" height="16.246" viewBox="0 0 18.266 16.246">
  <path id="Path_11562" data-name="Path 11562" d="M301.714,410.889a4.914,4.914,0,0,0-3.656-1.59,4.6,4.6,0,0,0-2.867.991,5.889,5.889,0,0,0-1.16,1.211,5.908,5.908,0,0,0-1.16-1.211A4.592,4.592,0,0,0,290,409.3a4.911,4.911,0,0,0-3.651,1.59,5.711,5.711,0,0,0-1.45,3.9,6.793,6.793,0,0,0,1.812,4.449,38.553,38.553,0,0,0,4.538,4.258c.627.535,1.339,1.141,2.076,1.786a1.068,1.068,0,0,0,.706.265h0a1.073,1.073,0,0,0,.706-.265c.739-.646,1.452-1.254,2.08-1.789a38.6,38.6,0,0,0,4.533-4.255,6.793,6.793,0,0,0,1.812-4.449A5.711,5.711,0,0,0,301.714,410.889Z" transform="translate(-284.899 -409.299)" fill="#dcdee7"/>
</svg>
