<svg id="Group_16666" data-name="Group 16666" xmlns="http://www.w3.org/2000/svg" width="24.76" height="25.009" viewBox="0 0 24.76 25.009">
  <g id="Group_16661" data-name="Group 16661">
    <path id="Path_11512" data-name="Path 11512" d="M210.928,86.912H214.9a3.092,3.092,0,0,1,0-2.157h-3.969a1.1,1.1,0,0,0-1.078,1.078A1.082,1.082,0,0,0,210.928,86.912Z" transform="translate(-209.85 -83.957)" fill="#fff"/>
    <path id="Path_11513" data-name="Path 11513" d="M227.412,86.912a1.068,1.068,0,0,0,1.078-1.078,1.082,1.082,0,0,0-1.078-1.078H215.14a3.092,3.092,0,0,1,0,2.157Z" transform="translate(-203.731 -83.957)" fill="#fff"/>
    <path id="Path_11514" data-name="Path 11514" d="M214.688,88.159a1.814,1.814,0,0,0,1.531-.82,1.858,1.858,0,0,0,0-2.157,1.878,1.878,0,0,0-1.531-.8,1.919,1.919,0,0,0-1.553.8,1.9,1.9,0,0,0,1.553,2.976Z" transform="translate(-206.449 -84.385)" fill="#fff"/>
    <path id="Path_11515" data-name="Path 11515" d="M210.928,90.352h12.294a3.092,3.092,0,0,1,0-2.157H210.928a1.078,1.078,0,0,0,0,2.157Z" transform="translate(-209.85 -76.769)" fill="#fff"/>
    <path id="Path_11516" data-name="Path 11516" d="M222.958,88.195H218.99a3.093,3.093,0,0,1,0,2.157h3.968a1.078,1.078,0,0,0,0-2.157Z" transform="translate(-199.277 -76.769)" fill="#fff"/>
    <path id="Path_11517" data-name="Path 11517" d="M217,88.635a1.888,1.888,0,0,0-.345,1.078,1.885,1.885,0,0,0,1.876,1.876,1.919,1.919,0,0,0,1.553-.8,1.837,1.837,0,0,0,.345-1.078,1.917,1.917,0,0,0-1.9-1.9A1.814,1.814,0,0,0,217,88.635Z" transform="translate(-201.984 -77.213)" fill="#fff"/>
    <path id="Path_11518" data-name="Path 11518" d="M210.928,91.635a1.082,1.082,0,0,0-1.078,1.078,1.1,1.1,0,0,0,1.078,1.078H214.9a2.99,2.99,0,0,1-.194-1.078,2.907,2.907,0,0,1,.194-1.078Z" transform="translate(-209.85 -69.581)" fill="#fff"/>
    <path id="Path_11519" data-name="Path 11519" d="M227.412,91.635H215.14a2.906,2.906,0,0,1,.194,1.078,2.989,2.989,0,0,1-.194,1.078h12.272a1.082,1.082,0,0,0,1.078-1.078A1.068,1.068,0,0,0,227.412,91.635Z" transform="translate(-203.731 -69.581)" fill="#fff"/>
    <path id="Path_11520" data-name="Path 11520" d="M214.688,91.255a1.888,1.888,0,0,0-1.553,2.976,1.919,1.919,0,0,0,1.553.8,1.878,1.878,0,0,0,1.531-.8,1.858,1.858,0,0,0,0-2.157A1.814,1.814,0,0,0,214.688,91.255Z" transform="translate(-206.449 -70.021)" fill="#fff"/>
  </g>
</svg>
