<svg xmlns="http://www.w3.org/2000/svg" width="21.527" height="21.527" viewBox="0 0 21.527 21.527">
  <g id="settings" transform="translate(0.15 0.15)">
    <path id="Path_11532" data-name="Path 11532" d="M11.279,21.227H9.947a1.956,1.956,0,0,1-1.954-1.954v-.451a8.569,8.569,0,0,1-1.331-.552l-.319.319a1.954,1.954,0,0,1-2.764,0l-.942-.942a1.954,1.954,0,0,1,0-2.764l.319-.319A8.57,8.57,0,0,1,2.4,13.233H1.954A1.956,1.956,0,0,1,0,11.279V9.947A1.956,1.956,0,0,1,1.954,7.993H2.4a8.572,8.572,0,0,1,.552-1.331l-.319-.319a1.954,1.954,0,0,1,0-2.764l.942-.942a1.954,1.954,0,0,1,2.764,0l.319.319A8.577,8.577,0,0,1,7.993,2.4V1.954A1.956,1.956,0,0,1,9.947,0h1.332a1.956,1.956,0,0,1,1.954,1.954V2.4a8.569,8.569,0,0,1,1.331.552l.319-.319a1.954,1.954,0,0,1,2.764,0l.942.942a1.954,1.954,0,0,1,0,2.764l-.319.319a8.57,8.57,0,0,1,.552,1.331h.451a1.956,1.956,0,0,1,1.954,1.954v1.332a1.956,1.956,0,0,1-1.954,1.954h-.451a8.572,8.572,0,0,1-.552,1.331l.319.319a1.954,1.954,0,0,1,0,2.764l-.942.942a1.954,1.954,0,0,1-2.764,0l-.319-.319a8.578,8.578,0,0,1-1.331.552v.451A1.956,1.956,0,0,1,11.279,21.227ZM6.87,16.963a7.33,7.33,0,0,0,1.9.789.622.622,0,0,1,.466.6v.918a.711.711,0,0,0,.71.71h1.332a.711.711,0,0,0,.71-.71v-.918a.622.622,0,0,1,.466-.6,7.33,7.33,0,0,0,1.9-.789.622.622,0,0,1,.756.1l.65.65a.71.71,0,0,0,1,0l.942-.942a.71.71,0,0,0,0-1l-.651-.651a.622.622,0,0,1-.1-.756,7.329,7.329,0,0,0,.789-1.9.622.622,0,0,1,.6-.466h.918a.711.711,0,0,0,.71-.71V9.947a.711.711,0,0,0-.71-.71h-.918a.622.622,0,0,1-.6-.466,7.33,7.33,0,0,0-.789-1.9.622.622,0,0,1,.1-.756l.65-.65a.71.71,0,0,0,0-1l-.942-.942a.71.71,0,0,0-1,0l-.651.651a.622.622,0,0,1-.756.1,7.33,7.33,0,0,0-1.9-.789.622.622,0,0,1-.466-.6V1.954a.711.711,0,0,0-.71-.71H9.947a.711.711,0,0,0-.71.71v.918a.622.622,0,0,1-.466.6,7.33,7.33,0,0,0-1.9.789.622.622,0,0,1-.756-.1l-.65-.65a.71.71,0,0,0-1,0l-.942.942a.71.71,0,0,0,0,1l.651.651a.622.622,0,0,1,.1.756,7.329,7.329,0,0,0-.789,1.9.622.622,0,0,1-.6.466H1.954a.711.711,0,0,0-.71.71v1.332a.711.711,0,0,0,.71.71h.918a.622.622,0,0,1,.6.466,7.33,7.33,0,0,0,.789,1.9.622.622,0,0,1-.1.756l-.65.65a.71.71,0,0,0,0,1l.942.942a.71.71,0,0,0,1,0l.651-.651A.625.625,0,0,1,6.87,16.963Z" fill="#9195b2" stroke="#f1f5f8" stroke-width="0.3"/>
    <path id="Path_11533" data-name="Path 11533" d="M149.218,153.837a4.618,4.618,0,1,1,4.618-4.618A4.624,4.624,0,0,1,149.218,153.837Zm0-7.993a3.375,3.375,0,1,0,3.375,3.375A3.378,3.378,0,0,0,149.218,145.844Z" transform="translate(-138.605 -138.605)" fill="#9195b2" stroke="#f1f5f8" stroke-width="0.3"/>
  </g>
</svg>
