<svg xmlns="http://www.w3.org/2000/svg" width="23.263" height="21.014" viewBox="0 0 23.263 21.014">
  <g id="Group_16844" data-name="Group 16844" transform="translate(-385.949 -574.282)">
    <path id="Path_11543" data-name="Path 11543" d="M404.845,590.583a2.568,2.568,0,0,1,.336,3.915,2.659,2.659,0,0,1-3.661.128,2.624,2.624,0,0,1-.793-1.3,2.374,2.374,0,0,1,.071-1.511,3.1,3.1,0,0,1,.926-1.241h-6.189a5.584,5.584,0,0,1,.434.423,2.52,2.52,0,0,1-.046,3.349,2.69,2.69,0,0,1-3.627.343,2.616,2.616,0,0,1-.558-3.5,2.471,2.471,0,0,1,.659-.647c.055-.037.116-.073,0-.121a2.238,2.238,0,0,1-1.026-.97,5.1,5.1,0,0,1-.56-1.745q-.439-2.29-.879-4.577c-.239-1.235-.485-2.47-.727-3.7-.088-.447-.178-.893-.259-1.34-.022-.121-.075-.154-.194-.156a9.6,9.6,0,0,1-1.335-.025,1.613,1.613,0,0,1-1.222-.963,2.293,2.293,0,0,1-.242-1.225,1.382,1.382,0,0,1,.72-1.186,1.852,1.852,0,0,1,.942-.248c.784.008,1.57.01,2.354,0a2,2,0,0,1,1.39.528,1.542,1.542,0,0,1,.392.635,8.739,8.739,0,0,1,.368,1.9c.022.143.074.17.2.17.95,0,1.9,0,2.848,0h11.869a2.854,2.854,0,0,1,1.164.2,1.5,1.5,0,0,1,.969,1.822,5.389,5.389,0,0,1-.258.8q-.367,1.057-.742,2.111c-.3.849-.587,1.7-.91,2.542a2.3,2.3,0,0,1-1.205,1.371,2.254,2.254,0,0,1-.929.2c-.891,0-1.782,0-2.673,0h-8.31c-.231,0-.242.014-.2.238.035.176.072.351.1.529.013.095.057.124.144.119.049,0,.1,0,.146,0h10.445a2.647,2.647,0,0,1,.8.1,1.376,1.376,0,0,1,.955,1.54,1.912,1.912,0,0,1-.25.811,1.3,1.3,0,0,1-1.106.642c-.082.005-.164.009-.246.015A.658.658,0,0,0,404.845,590.583Zm-5.776-1.125q2.9,0,5.8,0a1.429,1.429,0,0,0,.347-.029.176.176,0,0,0,.122-.071.8.8,0,0,0,.1-.6.216.216,0,0,0-.159-.154,1.223,1.223,0,0,0-.417-.04H393.833a1.894,1.894,0,0,1-.26-.013.544.544,0,0,1-.509-.479c-.117-.653-.226-1.307-.339-1.96a.483.483,0,0,1,.012-.23.562.562,0,0,1,.611-.406h11.433c.087,0,.174,0,.261,0a1.105,1.105,0,0,0,1.044-.561,2.594,2.594,0,0,0,.186-.378c.256-.709.5-1.423.755-2.135q.437-1.239.874-2.478a2.372,2.372,0,0,0,.2-.767.355.355,0,0,0-.183-.338,1.293,1.293,0,0,0-.42-.156,3.888,3.888,0,0,0-.666-.031h-15.08a.581.581,0,0,1-.646-.561c-.042-.3-.081-.594-.129-.89a6.6,6.6,0,0,0-.256-1.322.662.662,0,0,0-.242-.331,1.042,1.042,0,0,0-.627-.143c-.727-.008-1.453,0-2.179,0a1.291,1.291,0,0,0-.259.029.4.4,0,0,0-.372.469,1.279,1.279,0,0,0,.037.315c.108.383.292.683.8.654.473-.028.949-.007,1.424-.007a.558.558,0,0,1,.622.516q.206,1.084.414,2.167.317,1.638.636,3.278c.308,1.586.612,3.174.926,4.759a4.022,4.022,0,0,0,.443,1.374,1,1,0,0,0,.939.529C395.215,589.45,397.143,589.458,399.069,589.458Zm-5.15,4.681a1.41,1.41,0,0,0,.67-.142,1.5,1.5,0,0,0,.851-1.725,1.576,1.576,0,0,0-2.631-.656,1.473,1.473,0,0,0-.294,1.616A1.5,1.5,0,0,0,393.919,594.139Zm9.455-2.93a1.508,1.508,0,0,0-1.338.624,1.446,1.446,0,0,0,.275,2.013,1.573,1.573,0,0,0,2.231-.283,1.37,1.37,0,0,0,.155-1.49A1.425,1.425,0,0,0,403.374,591.209Z" transform="translate(0 0)" fill="#9195b2"/>
  </g>
</svg>
