<svg id="Component_80_1" data-name="Component 80 – 1" xmlns="http://www.w3.org/2000/svg" width="103.084" height="101.576" viewBox="0 0 103.084 101.576">
  <path id="Path_11557" data-name="Path 11557" d="M464.337,564.041c28.215.029,51.58,23.151,51.447,50.911-.133,27.539-23.548,50.6-51.431,50.665-28.014.061-51.772-23.35-51.652-50.892C412.821,586.728,435.966,564.008,464.337,564.041Zm-43.928,50.4a43.835,43.835,0,1,0,44-43.285C439.9,571.112,420.428,590.268,420.409,614.446Z" transform="translate(-412.701 -564.041)" fill="#fff"/>
  <path id="Path_11558" data-name="Path 11558" d="M443.6,606.915c-5.427,0-10.858-.114-16.282.039-3.771.107-5.7-1.286-5.395-5.232.1-1.28.023-7.73.01-9.016-.042-3.842,5.213-8.747,16.162-11.03a30.287,30.287,0,0,1,23.46,4.813c2.215,1.494,3.7,3,3.667,5.762-.042,3.427-.049,6.857,0,10.283.045,3.082-1.491,4.4-4.479,4.378-5.713-.036-11.429-.01-17.143-.01Z" transform="translate(-392.041 -525.843)" fill="#fff"/>
  <path id="Path_11559" data-name="Path 11559" d="M439.3,569.87c8.406.052,15.47,7.191,15.243,15.4-.273,9.991-7.136,18.117-15.346,18.172-8.643.059-15.366-7.987-15.356-18.383A15.411,15.411,0,0,1,439.3,569.87Z" transform="translate(-387.656 -550.938)" fill="#fff"/>
</svg>
